<mxfile host="Electron" agent="Mozilla/5.0 (Windows NT 10.0; Win64; x64) AppleWebKit/537.36 (KHTML, like Gecko) draw.io/27.0.5 Chrome/134.0.6998.205 Electron/35.3.0 Safari/537.36" version="27.0.5">
  <diagram name="PÃ¡gina-1" id="c9a7WPOFNpbUGjqIXXtY">
    <mxGraphModel dx="1426" dy="961" grid="1" gridSize="10" guides="1" tooltips="1" connect="1" arrows="1" fold="1" page="1" pageScale="1" pageWidth="827" pageHeight="1169" background="#ffffff" math="0" shadow="0">
      <root>
        <mxCell id="0" />
        <mxCell id="1" parent="0" />
        <mxCell id="WQxk3WdQx5rHBsLL4YCe-3" style="edgeStyle=orthogonalEdgeStyle;rounded=0;orthogonalLoop=1;jettySize=auto;html=1;strokeColor=#000000;" edge="1" parent="1" target="WQxk3WdQx5rHBsLL4YCe-2">
          <mxGeometry relative="1" as="geometry">
            <mxPoint x="413" y="380" as="sourcePoint" />
          </mxGeometry>
        </mxCell>
        <mxCell id="WQxk3WdQx5rHBsLL4YCe-1" value="&lt;b style=&quot;line-height: 100%;&quot;&gt;Inicio&lt;/b&gt;" style="ellipse;whiteSpace=wrap;html=1;aspect=fixed;fillColor=#FFFFFF;strokeColor=#000000;fontColor=#000000;fontSize=8;" vertex="1" parent="1">
          <mxGeometry x="373" y="300" width="80" height="80" as="geometry" />
        </mxCell>
        <mxCell id="WQxk3WdQx5rHBsLL4YCe-6" style="edgeStyle=orthogonalEdgeStyle;shape=connector;rounded=0;orthogonalLoop=1;jettySize=auto;html=1;strokeColor=#000000;align=center;verticalAlign=middle;fontFamily=Helvetica;fontSize=11;fontColor=default;labelBackgroundColor=default;endArrow=classic;" edge="1" parent="1" source="WQxk3WdQx5rHBsLL4YCe-2" target="WQxk3WdQx5rHBsLL4YCe-4">
          <mxGeometry relative="1" as="geometry" />
        </mxCell>
        <mxCell id="WQxk3WdQx5rHBsLL4YCe-2" value="&lt;b&gt;Mostrar mensaje&lt;/b&gt;: &quot;Por favor, ingrese las medidas del mueble en cms: &quot;" style="shape=parallelogram;perimeter=parallelogramPerimeter;whiteSpace=wrap;html=1;fixedSize=1;fillColor=#FFFFFF;strokeColor=#000000;fontColor=#000000;fontSize=8;" vertex="1" parent="1">
          <mxGeometry x="323" y="420" width="180" height="90" as="geometry" />
        </mxCell>
        <mxCell id="WQxk3WdQx5rHBsLL4YCe-8" style="edgeStyle=orthogonalEdgeStyle;shape=connector;rounded=0;orthogonalLoop=1;jettySize=auto;html=1;strokeColor=#000000;align=center;verticalAlign=middle;fontFamily=Helvetica;fontSize=11;fontColor=default;labelBackgroundColor=default;endArrow=classic;" edge="1" parent="1" source="WQxk3WdQx5rHBsLL4YCe-4" target="WQxk3WdQx5rHBsLL4YCe-7">
          <mxGeometry relative="1" as="geometry" />
        </mxCell>
        <mxCell id="WQxk3WdQx5rHBsLL4YCe-4" value="&lt;b&gt;Convertir&lt;/b&gt; medidas_pulg = medida_cm / 2.54" style="rounded=0;whiteSpace=wrap;html=1;strokeColor=#000000;align=center;verticalAlign=middle;fontFamily=Helvetica;fontSize=8;fontColor=#000000;fillColor=#FFFFFF;" vertex="1" parent="1">
          <mxGeometry x="323" y="560" width="180" height="90" as="geometry" />
        </mxCell>
        <mxCell id="WQxk3WdQx5rHBsLL4YCe-10" style="edgeStyle=orthogonalEdgeStyle;shape=connector;rounded=0;orthogonalLoop=1;jettySize=auto;html=1;entryX=0.5;entryY=0;entryDx=0;entryDy=0;strokeColor=#000000;align=center;verticalAlign=middle;fontFamily=Helvetica;fontSize=11;fontColor=default;labelBackgroundColor=default;endArrow=classic;" edge="1" parent="1" source="WQxk3WdQx5rHBsLL4YCe-7" target="WQxk3WdQx5rHBsLL4YCe-9">
          <mxGeometry relative="1" as="geometry" />
        </mxCell>
        <mxCell id="WQxk3WdQx5rHBsLL4YCe-7" value="&lt;b&gt;Mostrar mensaje&lt;/b&gt;: &quot;Los muebles poseen las siguientes medidas: &quot;, medidas_pulg" style="shape=parallelogram;perimeter=parallelogramPerimeter;whiteSpace=wrap;html=1;fixedSize=1;fillColor=#FFFFFF;strokeColor=#000000;fontColor=#000000;fontSize=8;align=center;verticalAlign=middle;" vertex="1" parent="1">
          <mxGeometry x="318" y="700" width="190" height="95" as="geometry" />
        </mxCell>
        <mxCell id="WQxk3WdQx5rHBsLL4YCe-9" value="&lt;b style=&quot;line-height: 100%;&quot;&gt;Fin&lt;/b&gt;" style="ellipse;whiteSpace=wrap;html=1;aspect=fixed;fillColor=#FFFFFF;strokeColor=#000000;fontColor=#000000;fontSize=8;" vertex="1" parent="1">
          <mxGeometry x="373" y="844.5" width="80" height="80" as="geometry" />
        </mxCell>
      </root>
    </mxGraphModel>
  </diagram>
</mxfile>
